HIERARCHY
ROOT Hips
{
	OFFSET 0.00000 0.00000 0.00000
	CHANNELS 6 Xposition Yposition Zposition Yrotation Zrotation Xrotation 
	JOINT Lumbar
	{
		OFFSET 0 0 0
		CHANNELS 3 Zrotation Xrotation Yrotation
		JOINT Neck
		{
			OFFSET 0.00 0.2701 0.00
			CHANNELS 3 Zrotation Xrotation Yrotation
			End Site
			{
				OFFSET 0.00 0.1379 0.00
			}
		}
		JOINT RightShoulder
		{
			OFFSET 0.0119 0.2289 0.1181
			CHANNELS 3 Zrotation Xrotation Yrotation
			JOINT RightElbow
			{
				OFFSET 0.00 -0.1475 0.00
				CHANNELS 2 Zrotation Yrotation
				JOINT RightWrist
				{
					OFFSET 0.00 -0.1605 0.00
					CHANNELS 2 Zrotation Xrotation
					End Site
					{
						OFFSET 0.0040 -0.1068 0.0006
					}
				}
			}
		}
		JOINT LeftShoulder
		{
			OFFSET 0.0119 0.2289 -0.1181
			CHANNELS 3 Zrotation Xrotation Yrotation
			JOINT LeftElbow
			{
				OFFSET 0.00 -0.1475 0.00
				CHANNELS 2 Zrotation Yrotation
				JOINT LeftWrist
				{
					OFFSET 0.00 -0.1605 0.00
					CHANNELS 2 Zrotation Xrotation
					End Site
					{
						OFFSET 0.0040 -0.1068 -0.0006
					}
				}
			}
		}
	}
	JOINT RightHip
	{
		OFFSET 0.0316 -0.0424 0.0458
		CHANNELS 3 Zrotation Xrotation Yrotation
		JOINT RightKnee
		{
			OFFSET 0.00 -0.2438 0.00
			CHANNELS 1 Zrotation
			JOINT RightAnkle
			{
				OFFSET 0.00 -0.2449 0.00
				CHANNELS 3 Zrotation Xrotation Yrotation
				End Site
				{
					OFFSET 0.1237 -0.0542 0.0051
				}
			}
		}
	}
	JOINT LeftHip
	{
		OFFSET 0.0316 -0.0424 -0.0458
		CHANNELS 3 Zrotation Xrotation Yrotation
		JOINT LeftKnee
		{
			OFFSET 0.00 -0.2438 0.00
			CHANNELS 1 Zrotation
			JOINT LeftAnkle
			{
				OFFSET 0.00 -0.2449 0.00
				CHANNELS 3 Zrotation Xrotation Yrotation
				End Site
				{
					OFFSET 0.1237 -0.0542 -0.0051
				}
			}
		}
	}
}
MOTION
Frames: 22
Frame Time: 0.02
-0.7836 0.57807 -0.10897 166.04988 0 2.24578 2.24983 -2.7812 -2.6415 -28.47189 8.04319 5.58869 26.91826 -24.20567 3.99395 118.0806 36.85116 -31.76594 2.84984 -64.16033 169.98332 25.38696 103.23567 -12.29745 -50.154 1.78561 11.45765 -6.75976 5.87183 -33.26464 11.17105 -1.20557 1.2946 -1.05968 -6.43767 2.32035 -15.10488 8.71042 8.45174 13.66237
-0.7835 0.57814 -0.10885 166.08307 0 2.18028 2.26128 -2.75989 -2.63352 -29.09252 8.13907 5.68338 27.39191 -24.72267 4.9727 118.15325 40.30432 -30.18566 2.41255 -64.15609 169.98787 25.99596 103.09582 -13.41442 -52.04129 0.68019 11.27311 -6.69293 5.92076 -32.90947 11.13948 -1.26167 1.19958 -1.01995 -6.38405 2.27285 -15.15502 8.72237 8.45074 13.68672
-0.78342 0.57823 -0.10883 166.15445 0 2.10439 2.2843 -2.73474 -2.6166 -29.85658 8.23797 5.78467 27.9651 -25.349 6.1788 118.2305 44.57511 -28.1754 1.88579 -64.15029 169.99252 26.73968 102.91774 -15.32475 -54.25836 -1.1335 11.04955 -6.60499 5.97059 -32.50678 11.10807 -1.34277 1.06637 -0.97701 -6.31193 2.18122 -15.21255 8.73397 8.44585 13.7191
-0.78332 0.57831 -0.10877 166.20667 0 2.03436 2.29629 -2.71333 -2.60401 -30.53466 8.33166 5.88011 28.47899 -25.9243 7.30126 118.29663 48.37722 -26.36826 1.42028 -64.14534 169.99687 27.40667 102.76501 -16.80412 -56.28614 -2.55498 10.84854 -6.5278 6.01765 -32.13233 11.07587 -1.41067 0.95447 -0.9351 -6.2488 2.11188 -15.26614 8.74486 8.44267 13.74768
-0.78327 0.5784 -0.1087 166.2689 0 1.95923 2.33352 -2.6834 -2.59041 -31.3045 8.44184 5.98727 29.05611 -26.50838 8.34555 118.40164 52.58944 -24.51995 0.8698 -64.13984 170.00247 28.14111 102.5774 -18.56304 -58.49322 -4.25784 10.62471 -6.4452 6.0734 -31.72701 11.04718 -1.48789 0.82386 -0.89447 -6.1826 2.03093 -15.32343 8.75965 8.43999 13.77698
-0.78312 0.57848 -0.10868 166.31814 0 1.89245 2.32008 -2.67043 -2.57685 -31.91353 8.51819 6.0717 29.52178 -27.09706 9.60212 118.42588 56.14578 -22.66508 0.47185 -64.13506 170.0053 28.76504 102.45473 -19.93747 -60.39512 -5.55165 10.44039 -6.36904 6.11204 -31.37603 11.01106 -1.55093 0.72402 -0.85075 -6.11864 1.96502 -15.37393 8.76608 8.43518 13.80641
-0.78275 0.57856 -0.10877 166.326 0 1.85025 2.17014 -2.70396 -2.56434 -32.07134 8.50149 6.09157 29.67917 -27.69471 11.42015 118.23361 57.63889 -20.81864 0.54734 -64.13277 170.0009 29.06597 102.50882 -20.02732 -61.43245 -5.50665 10.37112 -6.31607 6.09963 -31.1835 10.95398 -1.56991 0.71728 -0.79758 -6.0654 1.94511 -15.40851 8.75015 8.4262 13.83747
-0.78229 0.57865 -0.10891 166.31857 0 1.81699 1.96768 -2.75486 -2.55236 -32.05723 8.45049 6.08832 29.71649 -28.28861 13.43653 117.95876 58.45299 -18.9964 0.77385 -64.13103 169.99292 29.24807 102.63123 -19.7124 -62.13675 -5.03346 10.34383 -6.27034 6.07074 -31.04813 10.88941 -1.57331 0.74328 -0.74178 -6.0151 1.94311 -15.43509 8.72566 8.41505 13.86787
-0.78185 0.57873 -0.10903 166.31523 0 1.78036 1.785 -2.79878 -2.54095 -32.10298 8.41436 6.09594 29.79265 -28.86918 15.34334 117.71631 59.61101 -17.21341 0.91145 -64.12917 169.9872 29.47466 102.73095 -19.60115 -62.95715 -4.78241 10.30014 -6.22125 6.05193 -30.88923 10.82853 -1.58281 0.7554 -0.68839 -5.96356 1.93751 -15.46214 8.70462 8.40437 13.89642
-0.78145 0.57882 -0.10914 166.32494 0 1.74058 1.61958 -2.83907 -2.52586 -32.22978 8.38107 6.10264 29.93779 -29.51771 17.34586 117.49442 60.6473 -15.19869 1.13157 -64.12746 169.98176 29.74635 102.79651 -19.42554 -63.94838 -4.44192 10.24423 -6.17174 6.02235 -30.71884 10.76659 -1.59731 0.76208 -0.62984 -5.91108 1.91189 -15.5026 8.68543 8.39571 13.93409
-0.78097 0.57889 -0.10927 166.30384 0 1.70944 1.40609 -2.89062 -2.51858 -32.14645 8.33407 6.1052 29.91057 -30.02154 19.18596 117.21162 61.76667 -13.68371 1.2168 -64.12464 169.97118 29.89387 102.94685 -19.28824 -64.48737 -4.17392 10.22366 -6.12503 6.01106 -30.58589 10.7049 -1.59743 0.78817 -0.58136 -5.86137 1.93193 -15.51342 8.66034 8.3824 13.95278
-0.78028 0.57895 -0.10945 166.19693 0 1.70155 1.06807 -2.973 -2.53372 -31.51182 8.25412 6.10601 29.42609 -30.13333 20.58924 116.76741 63.26017 -13.49344 0.89459 -64.12737 169.98124 29.72868 103.34268 -19.25422 -63.97626 -4.23417 10.29597 -6.08513 6.0562 -30.54929 10.64743 -1.56084 0.86211 -0.562 -5.81973 2.08085 -15.44224 8.62136 8.35656 13.91693
-0.77951 0.57899 -0.10964 166.06037 0 1.70186 0.68422 -3.06536 -2.55665 -30.67315 8.16209 6.10257 28.77358 -30.09805 21.80963 116.26737 64.85725 -13.81459 0.43233 -64.12777 169.98154 29.44165 103.81727 -19.28276 -63.00384 -4.37513 10.40177 -6.04784 6.1199 -30.54779 10.59029 -1.51034 0.95428 -0.55257 -5.78073 2.27366 -15.3422 8.57681 8.32623 13.86243
-0.77878 0.57904 -0.10982 165.9399 0 1.69733 0.32436 -3.15059 -2.57526 -29.93606 8.07804 6.0985 28.20472 -30.12496 23.07338 115.80151 66.42108 -13.93875 0.03227 -64.12294 169.96197 29.20912 104.2365 -19.35163 -62.15656 -4.45924 10.48851 -6.00876 6.17392 -30.52533 10.53174 -1.46663 1.03681 -0.53845 -5.73976 2.44231 -15.2563 8.53446 8.298 13.81786
-0.77803 0.57908 -0.11001 165.80712 0 1.69753 -0.05049 -3.24746 -2.59675 -29.1566 7.98279 6.10482 27.60174 -30.17058 24.51286 115.29501 67.91715 -13.92241 -0.35989 -64.14288 170.03819 28.97661 104.73722 -19.13708 -61.63042 -4.61055 10.59202 -5.97203 6.23284 -30.52416 10.47772 -1.42043 1.12606 -0.52582 -5.70179 2.6307 -15.16441 8.49272 8.26917 13.76692
-0.77731 0.57914 -0.11019 165.6941 0 1.69004 -0.40453 -3.3221 -2.61461 -28.41802 7.90778 6.08834 27.03048 -30.14338 25.53926 114.86169 69.57043 -14.30924 -0.79942 -64.11291 169.92105 28.71617 105.0904 -19.50717 -60.36053 -4.65088 10.66909 -5.93149 6.28591 -30.4885 10.41513 -1.37627 1.20538 -0.51145 -5.6586 2.78651 -15.08 8.44912 8.24091 13.72511
-0.77673 0.57927 -0.11036 165.6339 0 1.65722 -0.6884 -3.33479 -2.61577 -27.85101 7.89753 6.01412 26.5972 -29.94265 25.47851 114.63883 71.77771 -15.77401 -1.37099 -63.92625 169.19852 28.41288 104.97903 -21.70295 -56.88223 -4.32799 10.65805 -5.87505 6.32216 -30.33286 10.32272 -1.34191 1.251 -0.49845 -5.59702 2.85624 -15.00821 8.39641 8.21229 13.71046
-0.77619 0.57941 -0.11051 165.59592 0 1.61714 -0.95023 -3.32483 -2.61367 -27.33025 7.90719 5.91662 26.20068 -29.67576 25.00713 114.49312 74.11274 -17.60828 -1.97803 -63.69281 168.29451 28.08545 104.72311 -24.44822 -52.71772 -3.89905 10.62191 -5.81552 6.35219 -30.14638 10.22277 -1.3102 1.28597 -0.4817 -5.53105 2.88923 -14.94776 8.34306 8.18496 13.70608
-0.77563 0.57953 -0.11066 165.55429 0 1.58119 -1.22223 -3.32326 -2.61646 -26.78491 7.90398 5.82692 25.78162 -29.44408 24.71518 114.31577 76.30128 -19.21663 -2.54822 -63.49391 167.52335 27.76669 104.55795 -26.79066 -49.05113 -3.54575 10.59964 -5.7605 6.38138 -29.98134 10.13039 -1.27663 1.32709 -0.4611 -5.46881 2.92891 -14.89211 8.29352 8.15905 13.69883
-0.77508 0.57968 -0.11086 165.48621 0 1.54037 -1.49324 -3.32802 -2.60606 -26.25215 7.91625 5.74803 25.38053 -29.18358 24.44146 114.12132 78.87902 -21.09487 -3.21692 -63.24004 166.54343 27.45323 104.29005 -29.76653 -44.60422 -3.08145 10.56177 -5.69254 6.42277 -29.77655 10.02086 -1.24458 1.36419 -0.46452 -5.39787 3.01085 -14.79356 8.2289 8.12456 13.68361
-0.77452 0.57979 -0.11096 165.47663 0 1.50996 -1.76297 -3.31671 -2.62109 -25.70089 7.90143 5.64214 24.95387 -28.97179 24.04192 113.98234 80.65931 -22.48305 -3.67931 -63.08814 165.95003 27.12472 104.20039 -31.57149 -41.59869 -2.81925 10.55802 -5.65066 6.44198 -29.65891 9.94484 -1.2111 1.40581 -0.4166 -5.3458 2.9974 -14.78727 8.19563 8.10826 13.68732
-0.774 0.5798 -0.11076 165.64362 0 1.49114 -2.01314 -3.24322 -2.71635 -25.13902 7.80539 5.45829 24.44359 -28.8895 23.33095 113.96941 80.34435 -22.50771 -3.63197 -63.24168 166.51502 26.76085 104.64109 -29.84755 -42.97628 -3.16752 10.5836 -5.68183 6.35701 -29.68033 9.96748 -1.16497 1.47198 -0.23048 -5.33031 2.71216 -15.03387 8.2485 8.14193 13.74375
